<?xml version="1.0" encoding="utf-8"?><svg xmlns="http://www.w3.org/2000/svg" xmlns:xlink="http://www.w3.org/1999/xlink" width="1574" height="427" preserveAspectRatio="xMidYMid" viewBox="0 0 1574 427" style="z-index:1;margin-right:-2px;display:block;background-repeat-y:initial;background-repeat-x:initial;background-color:rgb(241, 242, 243);animation-play-state:paused" ><g transform="translate(787,213.5) scale(-1,1) translate(-787,-213.5)" style="transform:matrix(-1, 0, 0, 1, 1574, 0);animation-play-state:paused" ><linearGradient id="lg-0.04242016337010468" x1="0" x2="1" y1="0" y2="0" style="animation-play-state:paused" ><stop stop-color="#85a2b6" offset="0" style="animation-play-state:paused" ></stop>

  
<stop stop-color="#bbcedd" offset="1" style="animation-play-state:paused" ></stop></linearGradient>
<path d="M 0 0 M 0 481.197 Q 157.4 468.914 314.8 462.044 T 629.6 435.103 T 944.4 388.043 T 1259.2 372.197 T 1574 407.13 L 1574 99.5414 Q 1416.6 7.0552 1259.2 3.81096 T 944.4 28.4574 T 629.6 0.882286 T 314.8 -30.1938 T 0 -10.15 Z" fill="url(#lg-0.04242016337010468)" opacity="0.19" style="opacity:0.19;animation-play-state:paused" ></path>
<path d="M 0 0 M 0 400.26 Q 157.4 443.866 314.8 437.391 T 629.6 420.417 T 944.4 392.203 T 1259.2 346.294 T 1574 388.295 L 1574 100.253 Q 1416.6 68.5053 1259.2 59.6065 T 944.4 59.9921 T 629.6 55.4666 T 314.8 -1.95435 T 0 17.6786 Z" fill="url(#lg-0.04242016337010468)" opacity="0.19" style="opacity:0.19;animation-play-state:paused" ></path>
<path d="M 0 0 M 0 448.682 Q 157.4 435.256 314.8 433.294 T 629.6 406.323 T 944.4 389.443 T 1259.2 357.231 T 1574 360.167 L 1574 40.6197 Q 1416.6 50.6324 1259.2 43.4178 T 944.4 30.1492 T 629.6 44.3107 T 314.8 41.9668 T 0 -17.7962 Z" fill="url(#lg-0.04242016337010468)" opacity="0.19" style="opacity:0.19;animation-play-state:paused" ></path>
<path d="M 0 0 M 0 482.375 Q 157.4 417.909 314.8 409.058 T 629.6 421.25 T 944.4 356.82 T 1259.2 392.339 T 1574 397.53 L 1574 73.3247 Q 1416.6 83.9486 1259.2 82.359 T 944.4 19.4785 T 629.6 14.8145 T 314.8 -23.1997 T 0 -40.4146 Z" fill="url(#lg-0.04242016337010468)" opacity="0.19" style="opacity:0.19;animation-play-state:paused" ></path></g></svg>